<?xml version="1.0" encoding="UTF-8"?>
<!DOCTYPE svg PUBLIC "-//W3C//DTD SVG 1.1//EN" "http://www.w3.org/Graphics/SVG/1.1/DTD/svg11.dtd">
<!-- Creator: CorelDRAW 2019 (64-Bit) -->
<svg xmlns="http://www.w3.org/2000/svg" xml:space="preserve" width="12.5461mm" height="29.9261mm" version="1.1" style="shape-rendering:geometricPrecision; text-rendering:geometricPrecision; image-rendering:optimizeQuality; fill-rule:evenodd; clip-rule:evenodd"
viewBox="0 0 0.67 1.6"
 xmlns:xlink="http://www.w3.org/1999/xlink">
 <defs>
  <style type="text/css">
   <![CDATA[
    .fil0 {fill:#F8F4E3}
   ]]>
  </style>
 </defs>
 <g id="Capa_x0020_1">
  <metadata id="CorelCorpID_0Corel-Layer"/>
  <path class="fil0" d="M0.26 0.46c-0,0 -0,0 -0,0 -0,0 -0.01,0 -0.01,-0 -0,-0 -0.01,-0.01 -0.01,-0.01 -0,-0.01 -0.15,-0.24 -0.16,-0.26l-0 0c0.01,-0.02 0.02,-0.03 0.03,-0.04 0.01,0.05 0.16,0.27 0.15,0.31zm-0.11 1.06c0.1,0.06 0.23,0.07 0.34,0l0.16 0.08 -0.64 0 0.14 -0.08zm0.1 -0.83c0.01,0 0.02,0.01 0.02,0.02 0,0.01 -0.01,0.02 -0.02,0.02 -0.01,0 -0.02,-0.01 -0.02,-0.02 0,-0 0,-0.01 0,-0.01l-0.01 -0.01c-0.05,-0.04 -0.07,-0.06 -0.12,-0.12 -0.29,-0.37 0.17,-0.73 0.46,-0.47 0.4,0.37 -0.37,0.71 -0.49,1.01 -0.07,0.18 0.06,0.34 0.2,0.38l0 0 0 -0.01c0,-0.02 0.02,-0.12 0.02,-0.13l-0.05 -0c0,-0.01 0.01,-0.01 0.01,-0.02 0,-0.01 0.02,-0.04 0.02,-0.05 0,-0 0.02,-0.03 0.02,-0.04l0.01 0c0,-0.01 0.01,-0.04 0.01,-0.05 -0,0 -0,0 -0,0 -0,0 -0.01,0.01 -0.01,0.01 -0,0 -0.01,0.01 -0.01,0.01 -0,0 -0.01,0.01 -0.02,0.02 0,0 0,0 0.01,0.01 -0,0.01 -0.01,0.02 -0.02,0.03l-0.02 0.03c-0,0 -0.02,0.02 -0.02,0.03 -0,-0 -0.05,-0.03 -0.05,-0.04 0,-0 0.06,-0.04 0.07,-0.05 0,-0 0.01,-0.01 0.01,-0.01 0,-0 0.01,-0.01 0.01,-0.01l0 0 0 -0c0,-0 0.01,-0.01 0.02,-0.02l0.01 -0.01c0,-0 0,-0 0,-0.01 -0,-0 -0,-0 -0,-0l-0.05 0.01 0 0.01 -0.09 0.04c-0,-0 -0.03,-0.05 -0.03,-0.06l0.11 -0 0 0.01 0.05 -0.01 -0 -0.01 -0.05 -0.01 -0 0.01 -0.1 -0.01 0.01 -0.06c0,0 0.1,0.05 0.1,0.05l-0 0.01 0.05 0.01 0 -0.01 -0.03 -0.03c-0,0 -0,0 -0.01,0.01l-0.08 -0.06c0,-0.01 0.01,-0.02 0.02,-0.03 0,-0 0.01,-0.01 0.01,-0.01l0.01 -0.01c0,0 0.01,0.01 0.01,0.01 0,0 0,0.01 0.01,0.01 0.01,0.01 0.01,0.02 0.02,0.02 0.01,0.01 0.01,0.02 0.02,0.02l0.01 0.02 -0 0 0.03 0.04 0.01 -0 -0.01 -0.05 -0.01 0 -0.03 -0.07c-0,-0.01 -0.01,-0.02 -0.01,-0.02l0.06 -0.03c0,0 0,-0 0,0.01 0,0.03 0,0.09 0,0.11l-0.01 0 0.01 0.05 0.01 -0 0.01 -0.05 -0.01 -0 0.01 -0.1 0.06 0.01c-0,0 -0,0.01 -0.01,0.01 -0,0 -0,0.01 -0.01,0.01l-0.04 0.08 -0.01 -0 -0.01 0.05 0.01 0c0,-0 0.03,-0.03 0.03,-0.03l-0.01 -0.01c0,-0.01 0.01,-0.01 0.02,-0.02l0.04 -0.06 0.05 0.04 -0.1 0.06c-0,-0 -0,-0 -0.01,-0 -0,0 -0.03,0.03 -0.03,0.03l0 0.01c0.01,-0 0.04,-0.01 0.05,-0.01l-0 -0.01 0.09 -0.04c0,0.01 0.03,0.05 0.03,0.06l-0.12 0 -0 -0.01c-0,0 -0.04,0.01 -0.04,0.01l0.16 -0 0 -0.01 0.08 -0.02 0 0c-0.01,0.01 -0,0.04 -0,0.06l-0.08 -0.01 -0 -0.01 -0.17 0c0,0 0,0 0,0l0.04 0.01c0,-0 0,-0.01 0,-0.01l0.1 0.01 -0.01 0.06c-0.01,-0 -0.02,-0.01 -0.03,-0.01l-0.05 -0.03c-0.01,-0 -0.02,-0.01 -0.02,-0.01l0 -0.01 -0.05 -0.01c-0,0 -0,0 -0,0.01l0.03 0.03c0,-0 0,-0 0.01,-0.01 0,0 0.05,0.04 0.06,0.04l0.02 0.02c-0,0 -0.03,0.05 -0.04,0.05 -0,-0 -0.06,-0.09 -0.06,-0.1 0,-0 0,-0 0,-0.01 -0.01,-0.01 -0.03,-0.03 -0.04,-0.03 -0,0.01 0.01,0.05 0.01,0.05l0.01 -0c0,0 0.04,0.09 0.04,0.09 -0.01,0 -0.03,0.01 -0.04,0.02 0,0.02 0.01,0.04 0.01,0.06l0.01 0.07c0.13,-0.02 0.24,-0.14 0.24,-0.26 0.01,-0.16 -0.11,-0.3 -0.22,-0.4l0.01 0.04 -0.01 0 -0.02 -0.06 0.07 0.01 -0 0.01 -0.04 -0.01c0.07,0.07 0.14,0.13 0.19,0.22 0.05,0.1 0.07,0.24 0.01,0.33 -0.22,0.36 -0.85,0.08 -0.5,-0.41 0.02,-0.02 0.05,-0.06 0.1,-0.11 0.08,-0.08 0.19,-0.17 0.27,-0.26 -0.01,-0 -0.02,-0.01 -0.04,-0.01 -0.02,0.01 -0.07,0.03 -0.09,0.03 -0.03,-0 -0.07,-0.01 -0.1,-0.03 -0.06,-0.01 -0.08,0.03 -0.09,0.02 0.01,0.01 0.02,0.02 0.02,0.03 0.01,0.02 0.04,0.03 0.05,0.05l0.01 0.01c0,-0 0.01,-0 0.01,-0zm0.07 0.75l0.01 0.01c0,0.01 0.02,0.03 0.02,0.03 -0.02,0 -0.04,0 -0.06,-0 0.01,-0.01 0.03,-0.04 0.03,-0.04zm0.02 -0.03l0.01 0.07c-0,-0 -0.02,-0.03 -0.02,-0.03 -0.01,-0.01 -0.01,-0.01 0.01,-0.03 0,-0 0,-0.01 0.01,-0.01zm-0.06 0.07l0.01 -0.07c0,0 0.02,0.03 0.02,0.03 -0,0.01 -0.01,0.01 -0.01,0.02l-0.01 0.02c-0,0 -0,0 -0,0 -0,0 -0,0 -0,0zm0.03 -0.05l-0.02 -0.03 0.04 -0c-0,0 -0.02,0.03 -0.02,0.03zm-0 -0.2c0,0.01 0,0.02 0,0.03 0.01,0.04 0.01,0.05 0.01,0.1l0.01 -0 0 0.02 -0.04 0 0.02 -0.15zm-0.27 -1c-0,0.07 0.13,0.19 0.17,0.24 0,0.01 0,0 0.01,0.01l-0 0 -0 0.01c-0.01,0.01 -0.02,0 -0.02,-0.01 -0.02,-0.02 -0.13,-0.12 -0.16,-0.15 -0,-0.04 0,-0.08 0.02,-0.11zm-0 0.18c0.05,0.04 0.11,0.06 0.16,0.1 0,0 0,0 0,0 -0,0.02 0,0.02 -0.01,0.03 -0.02,0.01 -0.05,0.02 -0.07,0.02 -0.04,-0.06 -0.07,-0.11 -0.08,-0.16zm0.45 0.15l-0.01 -0c-0.01,-0 -0.02,-0.01 -0.02,-0.01 -0.01,-0.03 0.01,-0.04 0.03,-0.05 0.03,-0.02 0.05,-0.03 0.08,-0.05 -0.02,0.04 -0.04,0.08 -0.08,0.11zm0.1 -0.19c-0.05,0.05 -0.13,0.13 -0.15,0.12 -0.01,-0.01 0.1,-0.13 0.15,-0.19 0,0.02 0,0.04 -0,0.07zm-0.02 -0.14c-0.05,0.06 -0.14,0.25 -0.16,0.24 -0.02,-0.02 0.11,-0.2 0.14,-0.29 0.01,0.02 0.02,0.03 0.03,0.05zm-0.07 -0.1c-0.03,0.08 -0.11,0.32 -0.13,0.32 -0.02,-0.02 0.08,-0.34 0.08,-0.34l0 -0.01c0.02,0.01 0.03,0.02 0.04,0.04zm-0.09 -0.06c-0.07,0.25 -0.09,0.71 -0.05,-0.02 0,0 0,0 0,0 0.02,0 0.03,0.01 0.05,0.01zm-0.13 -0.02c0.01,0.08 0.03,0.38 0.02,0.39 -0.02,-0 -0.07,-0.33 -0.08,-0.38 0.02,-0 0.03,-0.01 0.05,-0.01zm-0.1 0.03c0,0.08 0.09,0.28 0.09,0.36 -0,0 -0.01,0 -0.01,0 -0.02,-0.03 -0.11,-0.27 -0.13,-0.34 0.02,-0.01 0.03,-0.02 0.05,-0.03z"/>
 </g>
</svg>
