<?xml version="1.0" encoding="UTF-8"?>
<!DOCTYPE svg PUBLIC "-//W3C//DTD SVG 1.1//EN" "http://www.w3.org/Graphics/SVG/1.1/DTD/svg11.dtd">
<!-- Creator: CorelDRAW 2019 (64-Bit) -->
<svg xmlns="http://www.w3.org/2000/svg" xml:space="preserve" width="162.56mm" height="28.4855mm" version="1.1" style="shape-rendering:geometricPrecision; text-rendering:geometricPrecision; image-rendering:optimizeQuality; fill-rule:evenodd; clip-rule:evenodd"
viewBox="0 0 110 19.28"
 xmlns:xlink="http://www.w3.org/1999/xlink">
 <defs>
  <style type="text/css">
   <![CDATA[
    .str0 {stroke:#DDD0BD;stroke-width:0.12;stroke-miterlimit:22.9256;stroke-opacity:0.658824}
    .fil5 {fill:none}
    .fil3 {fill:none}
    .fil0 {fill:#78ACCF}
    .fil4 {fill:#F8F4E3}
    .fil2 {fill:#DDD0BD;fill-opacity:0.658824}
    .fil1 {fill:#F8F4E3}
   ]]>
  </style>
   <clipPath id="id0">
    <path d="M110 1.51c-35.81,-5.2 -73.76,5.11 -110,0l0 17.13c37.24,3.1 58.72,-6.58 110,0l0 -17.13z"/>
   </clipPath>
 </defs>
 <g id="Capa_x0020_1">
  <metadata id="CorelCorpID_0Corel-Layer"/>
  <path class="fil0" d="M110 1.51c-35.81,-5.2 -73.76,5.11 -110,0l0 17.13c37.24,3.1 58.72,-6.58 110,0l0 -17.13z"/>
  <g style="clip-path:url(#id0)">
   <g id="_2226034859840">
    <path id="1" class="fil1" d="M114.44 29.52l2.17 0c-0.15,-0.23 -0.25,-0.41 -0.28,-0.48l3.34 0.02 -0.32 0.47 2.27 0c-0.33,-2.42 -0.62,-4.65 -0.57,-4.88l4.25 -0.35c-0.13,-0.45 -0.52,-1.07 -0.73,-1.45 -0.39,-0.71 -2.05,-3.63 -2.1,-4.01 -0.25,-0.16 -1.64,-2.87 -1.9,-3.38l-0.59 0.13c-0.38,-1.1 -0.78,-3.16 -0.83,-4.47 0.08,0.02 0.26,0.06 0.27,0.06l0 0c0.17,0.33 0.46,0.54 0.73,0.81 0.25,0.26 0.45,0.45 0.71,0.71 0.37,0.37 1.09,1.22 1.51,1.43 -0.03,0.33 -0.32,0.39 -0.49,0.7 0.4,0.68 1.04,1.45 1.61,2.2l1.67 2.33c0.32,0.14 1.51,2.11 1.96,2.53 0.27,-0.09 4.25,-2.84 4.61,-3.15 -0.15,-0.2 -5.4,-3.39 -6.36,-3.97 -0.36,-0.22 -0.71,-0.44 -1.07,-0.66 -0.32,-0.19 -0.79,-0.54 -1.11,-0.64l-0.39 0.35 -0.39 -0.24c-0.27,-0.43 -1.05,-1.1 -1.38,-1.44l-1.06 -1.05c-0.24,-0.23 -0.23,-0.15 -0.29,-0.47 0.12,-0.05 0.13,-0.14 0.23,-0.3l4.28 1.12 -0.14 0.82 8.1 3.49c0.19,-0.24 2.29,-4.68 2.39,-5.08l-10.05 -0.29 -0.21 0.56 -4.21 -1.14 0.01 -0.5 4.28 -1.11 0.25 0.74 8.82 -0.98 -0.46 -5.58c-0.14,0.01 -8.38,4.36 -8.89,4.72l0.12 0.57 -4.24 1.09 -0.16 -0.48 3 -2.98c0.31,0.1 0.35,0.29 0.63,0.46l7.12 -5.22c-0.23,-0.53 -1.19,-1.72 -1.58,-2.31 -0.25,-0.38 -0.51,-0.75 -0.8,-1.16l-0.81 -1.1c-0.22,0.18 -0.54,0.77 -0.71,1.05 -0.22,0.36 -0.42,0.68 -0.66,1.06 -0.45,0.72 -0.87,1.41 -1.32,2.12 -0.46,0.73 -0.9,1.41 -1.32,2.12l-1.29 2.13 0.36 0.37 -2.99 3.07 -0.49 -0.34 1.09 -4.11 0.79 0.18 2.69 -6.07c0.21,-0.49 0.76,-1.56 0.86,-2.05l-4.87 -2.32c-0.2,0.01 -0.27,-0.14 -0.27,0.53 -0.01,2.44 -0.37,7.95 -0.25,9.43l0.55 0.19 -1.09 4.04 -0.6 -0 -1.08 -4.11 0.74 -0.25 -0.98 -8.76 -5.63 0.46c0.13,0.42 0.41,0.81 0.6,1.19 0.18,0.36 0.41,0.77 0.6,1.12l3.56 6.53 0.58 -0.1 1.06 4.04 -0.55 0.23c-0.38,-0.33 -2.8,-2.72 -2.91,-2.99l0.48 -0.55c-0.33,-0.58 -0.9,-1.21 -1.32,-1.81l-3.85 -5.17 -4.68 3.08 8.51 5.27c0.28,-0.16 0.2,-0.22 0.47,-0.34 0.3,0.32 2.6,2.68 2.95,2.87l-0.28 0.56c-0.46,-0.05 -3.79,-0.95 -4.11,-1.11l0.14 -0.76 -8.14 -3.51c-0.41,0.94 -2.24,4.56 -2.38,5.09l10.07 0.28 0.18 -0.52c0.43,0.03 3.06,0.74 3.31,0.92l-14.21 -0.12 -0.04 -0.83 -6.83 -1.44 0 0.18c0.63,1.07 0.28,3.83 0.05,4.99l6.8 -1.29 0 -0.88 14.57 0.14c-0.12,0.1 -0.01,0.04 -0.23,0.14l-3.48 0.89c-0.07,-0.29 -0.12,-0.51 -0.25,-0.73l-8.81 0.98 0.46 5.59c0.52,-0.14 1.77,-0.9 2.32,-1.19l4.4 -2.35c0.61,-0.32 1.64,-0.81 2.18,-1.19l-0.12 -0.57 4.13 -1.05c0.09,0.14 0.18,0.27 0.27,0.47l-3.03 2.96c-0.26,-0.12 -0.34,-0.24 -0.55,-0.46 -0.31,0.07 -4.57,3.27 -5.42,3.88l-1.75 1.33c0.16,0.37 2.91,4.23 3.17,4.58 0.1,-0.07 5.17,-8.09 5.31,-8.49 -0.15,-0.16 -0.28,-0.29 -0.37,-0.5 0.64,-0.52 2.6,-2.73 3.07,-2.95 0.19,0.45 -0.5,3.98 -0.72,4.43l-0.75 -0.17c-0.15,0.31 -3.45,7.71 -3.53,8.1 0.54,0.35 2.84,1.26 3.17,1.56 -0.08,1.35 -0.35,2.99 -0.58,4.47zm5.08 -18.3l0 0 0 -0zm0.04 -0.53l0.14 -0.09 -0.14 0.09 0 0zm-1.5 3.68c-0.21,0.73 -0.32,1.9 -0.42,2.71 -0.51,3.85 -0.64,4.59 -0.69,8.79l-0.5 -0.16 -0.23 1.81 3.6 0.01 -1.76 -13.16z"/>
    <path class="fil2" d="M200.16 -3.98c6.72,0 12.17,2.95 12.17,6.58 0,3.63 -5.45,6.58 -12.17,6.58 -6.72,0 -12.17,-2.95 -12.17,-6.58 0,-3.63 5.45,-6.58 12.17,-6.58z"/>
    <path class="fil3 str0" d="M201.45 15.52c6.72,0 12.17,2.95 12.17,6.58 0,3.63 -5.45,6.58 -12.17,6.58 -6.72,0 -12.17,-2.95 -12.17,-6.58 0,-3.63 5.45,-6.58 12.17,-6.58z"/>
    <path class="fil4" d="M6.21 19.95c1.03,-1.66 0.84,-4.07 -0.12,-5.71 -0.89,-1.53 -2.04,-2.56 -3.28,-3.77l0.62 0.09 0.03 -0.2 -1.17 -0.19 0.27 1.1 0.2 -0.05 -0.15 -0.6c1.87,1.73 3.99,4.16 3.81,6.84 -0.18,2.75 -2.88,5.15 -6.06,4.47 -2.51,-0.54 -4.87,-3.3 -3.57,-6.47 2.14,-5.22 15.51,-10.99 8.53,-17.44 -4.99,-4.61 -12.96,1.6 -7.95,8.04 0.85,1.09 1.34,1.43 2.15,2.14l0.23 0.21c-0.05,0.05 -0.07,0.11 -0.07,0.18 0,0.15 0.12,0.27 0.27,0.27 0.15,0 0.27,-0.12 0.27,-0.27 0,-0.15 -0.12,-0.27 -0.27,-0.27 -0.04,0 -0.08,0.01 -0.11,0.02l-0.19 -0.17c-0.29,-0.31 -0.68,-0.62 -0.92,-0.9 -5.81,-6.82 -0.03,-10.75 3.56,-10.04 2.66,0.53 4.81,3.34 3.59,6.48 -0.92,2.37 -4.49,5.07 -6.71,7.19 -0.94,0.9 -1.44,1.51 -1.74,1.93 -5.99,8.43 4.87,13.35 8.76,7.12z"/>
   </g>
  </g>
  <path class="fil5" d="M110 1.51c-35.81,-5.2 -73.76,5.11 -110,0l0 17.13c37.24,3.1 58.72,-6.58 110,0l0 -17.13z"/>
 </g>
</svg>
