<?xml version="1.0" encoding="UTF-8"?>
<!DOCTYPE svg PUBLIC "-//W3C//DTD SVG 1.1//EN" "http://www.w3.org/Graphics/SVG/1.1/DTD/svg11.dtd">
<!-- Creator: CorelDRAW 2019 (64-Bit) -->
<svg xmlns="http://www.w3.org/2000/svg" xml:space="preserve" width="163.125mm" height="17.0681mm" version="1.1" style="shape-rendering:geometricPrecision; text-rendering:geometricPrecision; image-rendering:optimizeQuality; fill-rule:evenodd; clip-rule:evenodd"
viewBox="0 0 110.89 11.6"
 xmlns:xlink="http://www.w3.org/1999/xlink">
 <defs>
  <style type="text/css">
   <![CDATA[
    .str0 {stroke:#DDD0BD;stroke-width:0.12;stroke-miterlimit:22.9256;stroke-opacity:0.658824}
    .str1 {stroke:#F8F4E3;stroke-width:0.24;stroke-miterlimit:22.9256}
    .fil4 {fill:none}
    .fil2 {fill:none}
    .fil0 {fill:#336699}
    .fil3 {fill:#F7A994}
    .fil5 {fill:#FDD100}
    .fil1 {fill:#DDD0BD;fill-opacity:0.658824}
   ]]>
  </style>
   <clipPath id="id0">
    <path d="M0.26 1.68l0 2.9c38.31,8.95 79.11,-7.49 110.51,-0.21l0 -2.7c-50.15,-6.11 -72.52,8.29 -110.51,0z"/>
   </clipPath>
   <clipPath id="id1">
    <path d="M110.63 9.11l0 -4.11c-37.41,-7.54 -63.31,9.3 -110.51,0l0 4.11c51.51,6.68 73.1,-3.14 110.51,0z"/>
   </clipPath>
 </defs>
 <g id="Capa_x0020_1">
  <metadata id="CorelCorpID_0Corel-Layer"/>
  <path class="fil0" d="M0.26 1.68l0 2.9c38.31,8.95 79.11,-7.49 110.51,-0.21l0 -2.7c-50.15,-6.11 -72.52,8.29 -110.51,0z"/>
  <g style="clip-path:url(#id0)">
   <g id="_2226144488544">
    <path id="1" class="fil1" d="M201.35 -0.5c6.75,0 12.23,0.43 12.23,0.97 0,0.53 -5.48,0.97 -12.23,0.97 -6.75,0 -12.23,-0.43 -12.23,-0.97 0,-0.53 5.48,-0.97 12.23,-0.97z"/>
    <path class="fil2 str0" d="M202.65 2.37c6.75,0 12.23,0.43 12.23,0.97 0,0.53 -5.48,0.97 -12.23,0.97 -6.75,0 -12.23,-0.43 -12.23,-0.97 0,-0.53 5.48,-0.97 12.23,-0.97z"/>
    <path class="fil3" d="M-10.44 3.2c1.04,-0.24 0.84,-0.6 -0.12,-0.84 -0.89,-0.23 -2.05,-0.38 -3.29,-0.55l0.63 0.01 0.03 -0.03 -1.18 -0.03 0.28 0.16 0.2 -0.01 -0.15 -0.09c1.87,0.25 4.01,0.61 3.83,1.01 -0.18,0.4 -2.9,0.76 -6.09,0.66 -2.52,-0.08 -4.89,-0.49 -3.58,-0.95 2.15,-0.77 15.58,-1.62 8.57,-2.57 -5.01,-0.68 -13.02,0.23 -7.99,1.18 0.85,0.16 1.35,0.21 2.16,0.32l0.23 0.03c-0.05,0.01 -0.07,0.02 -0.07,0.03 0,0.02 0.12,0.04 0.27,0.04 0.15,0 0.27,-0.02 0.27,-0.04 0,-0.02 -0.12,-0.04 -0.27,-0.04 -0.04,0 -0.08,0 -0.11,0l-0.19 -0.03c-0.29,-0.05 -0.68,-0.09 -0.92,-0.13 -5.84,-1 -0.03,-1.58 3.58,-1.48 2.67,0.08 4.84,0.49 3.61,0.95 -0.93,0.35 -4.51,0.75 -6.74,1.06 -0.95,0.13 -1.45,0.22 -1.74,0.28 -6.02,1.24 4.89,1.96 8.8,1.05z"/>
   </g>
  </g>
  <path class="fil4 str1" d="M0.26 1.68l0 2.9c38.31,8.95 79.11,-7.49 110.51,-0.21l0 -2.7c-50.15,-6.11 -72.52,8.29 -110.51,0z"/>
  <path class="fil5" d="M110.63 9.11l0 -4.11c-37.41,-7.54 -63.31,9.3 -110.51,0l0 4.11c51.51,6.68 73.1,-3.14 110.51,0z"/>
  <g style="clip-path:url(#id1)">
   <g id="_2226144490048">
    <path id="1" class="fil1" d="M-90.46 16.89c-6.75,0 -12.23,-1.55 -12.23,-3.46 0,-1.91 5.48,-3.46 12.23,-3.46 6.75,0 12.23,1.55 12.23,3.46 0,1.91 -5.48,3.46 -12.23,3.46z"/>
    <path class="fil2 str0" d="M-91.75 6.64c-6.75,0 -12.23,-1.55 -12.23,-3.46 0,-1.91 5.48,-3.46 12.23,-3.46 6.75,0 12.23,1.55 12.23,3.46 0,1.91 -5.48,3.46 -12.23,3.46z"/>
    <path class="fil3" d="M121.34 3.69c-1.04,0.87 -0.84,2.14 0.12,3 0.89,0.8 2.05,1.35 3.29,1.98l-0.63 -0.05 -0.03 0.11 1.18 0.1 -0.28 -0.58 -0.2 0.03 0.15 0.32c-1.87,-0.91 -4.01,-2.19 -3.83,-3.59 0.18,-1.45 2.9,-2.71 6.09,-2.35 2.52,0.28 4.89,1.74 3.58,3.4 -2.15,2.74 -15.58,5.78 -8.57,9.16 5.01,2.42 13.02,-0.84 7.99,-4.22 -0.85,-0.57 -1.35,-0.75 -2.16,-1.13l-0.23 -0.11c0.05,-0.03 0.07,-0.06 0.07,-0.1 0,-0.08 -0.12,-0.14 -0.27,-0.14 -0.15,0 -0.27,0.06 -0.27,0.14 0,0.08 0.12,0.14 0.27,0.14 0.04,0 0.08,-0 0.11,-0.01l0.19 0.09c0.29,0.16 0.68,0.32 0.92,0.47 5.84,3.58 0.03,5.65 -3.58,5.28 -2.67,-0.28 -4.84,-1.76 -3.61,-3.41 0.93,-1.25 4.51,-2.67 6.74,-3.78 0.95,-0.47 1.45,-0.79 1.74,-1.01 6.02,-4.43 -4.89,-7.01 -8.8,-3.74z"/>
   </g>
  </g>
  <path class="fil4 str1" d="M110.63 9.11l0 -4.11c-37.41,-7.54 -63.31,9.3 -110.51,0l0 4.11c51.51,6.68 73.1,-3.14 110.51,0z"/>
 </g>
</svg>
